<svg xmlns="http://www.w3.org/2000/svg" width="512" height="512" style="shape-rendering:geometricPrecision;text-rendering:geometricPrecision;image-rendering:optimizeQuality;fill-rule:evenodd;clip-rule:evenodd"><path style="opacity:.996" fill="#29a71a" d="M232.5-.5h46c89.644 10.8879 157.144 55.2213 202.5 133 16.695 31.471 26.861 64.804 30.5 100v46c-10.888 89.644-55.221 157.144-133 202.5-31.471 16.695-64.804 26.861-100 30.5h-46c-89.644-10.888-157.1438-55.221-202.5-133-16.6947-31.471-26.8614-64.804-30.5-100v-46C10.3875 142.857 54.7208 75.3573 132.5 30c31.471-16.6947 64.804-26.8614 100-30.5Z"/><path style="opacity:1" fill="#fdfefd" d="M243.5 95.5c65.928-1.6286 116.094 25.371 150.5 81 30 58.985 26.667 115.985-10 171-36.976 47.724-85.809 69.224-146.5 64.5-18.489-2.332-36.156-7.498-53-15.5-26.078 5.853-52.078 12.019-78 18.5-8.3295.64-11.1629-3.193-8.5-11.5 5.295-25.476 10.462-50.976 15.5-76.5-27.1861-60.659-21.3527-117.826 17.5-171.5 29.417-35.126 66.917-55.126 112.5-60Z"/><path style="opacity:1" fill="#2aa71b" d="M246.5 129.5c58.188-.259 99.688 25.741 124.5 78 18.363 54.047 7.196 100.88-33.5 140.5-47.047 36.375-96.714 40.208-149 11.5-15.874 3.927-31.708 7.927-47.5 12 1.986-16.104 4.82-32.104 8.5-48-5.119-12.517-9.952-25.184-14.5-38-11.68-61.787 9.154-108.954 62.5-141.5 15.589-7.808 31.922-12.642 49-14.5Z"/><path style="opacity:1" fill="#fdfefd" d="M200.5 177.5c4.375-.153 8.208 1.18 11.5 4 5.274 10.881 10.274 21.881 15 33 .701 3.428.368 6.762-1 10-4.484 4.648-7.651 9.981-9.5 16-.034 2.933.799 5.6 2.5 8 8.464 10.798 17.964 20.631 28.5 29.5 7.127 5.787 14.793 10.787 23 15 4.282.965 8.282.298 12-2l10-10c1.699-.958 3.533-1.458 5.5-1.5 12.656 2.956 25.156 6.456 37.5 10.5 4.581 3.438 6.081 7.938 4.5 13.5-8.88 18.854-23.714 28.187-44.5 28-21.914-2.248-41.581-10.081-59-23.5-19.627-14.624-36.127-32.124-49.5-52.5-9.118-15.005-12.618-31.171-10.5-48.5 3.083-9.498 8.416-17.498 16-24 2.57-2.087 5.237-3.92 8-5.5Z"/></svg>